<?xml version="1.0" encoding="UTF-8" standalone="no"?>
<!DOCTYPE svg PUBLIC "-//W3C//DTD SVG 1.1//EN"
 "http://www.w3.org/Graphics/SVG/1.1/DTD/svg11.dtd">
<!-- Generated by graphviz version 2.40.1 (20161225.0304)
 -->
<!-- Title: dependencies Pages: 1 -->
<svg width="5378pt" height="284pt"
 viewBox="0.00 0.00 5378.00 284.00" xmlns="http://www.w3.org/2000/svg" xmlns:xlink="http://www.w3.org/1999/xlink">
<g id="graph0" class="graph" transform="scale(1 1) rotate(0) translate(4 280)">
<title>dependencies</title>
<polygon fill="#ffffff" stroke="transparent" points="-4,4 -4,-280 5374,-280 5374,4 -4,4"/>
<text text-anchor="start" x="2664.0091" y="-42.4" font-family="sans-serif" font-weight="bold" font-size="14.00" fill="#000000">Legend</text>
<polygon fill="#ffffb3" stroke="transparent" points="2451,-10 2451,-30 2471,-30 2471,-10 2451,-10"/>
<text text-anchor="start" x="2474.629" y="-15.4" font-family="sans-serif" font-size="14.00" fill="#000000"> &#160;Declarations</text>
<polygon fill="#8dd3c7" stroke="transparent" points="2564,-10 2564,-30 2584,-30 2584,-10 2564,-10"/>
<text text-anchor="start" x="2587.7251" y="-15.4" font-family="sans-serif" font-size="14.00" fill="#000000"> &#160;Module</text>
<polygon fill="#80b1d3" stroke="transparent" points="2650,-10 2650,-30 2670,-30 2670,-10 2650,-10"/>
<text text-anchor="start" x="2673.7812" y="-15.4" font-family="sans-serif" font-size="14.00" fill="#000000"> &#160;Bootstrap</text>
<polygon fill="#fdb462" stroke="transparent" points="2747,-10 2747,-30 2767,-30 2767,-10 2747,-10"/>
<text text-anchor="start" x="2770.6732" y="-15.4" font-family="sans-serif" font-size="14.00" fill="#000000"> &#160;Providers</text>
<polygon fill="#fb8072" stroke="transparent" points="2843,-10 2843,-30 2863,-30 2863,-10 2843,-10"/>
<text text-anchor="start" x="2866.7258" y="-15.4" font-family="sans-serif" font-size="14.00" fill="#000000"> &#160;Exports</text>
<g id="clust1" class="cluster">
<title>cluster_AppModule</title>
<polygon fill="none" stroke="#000000" stroke-dasharray="1,5" points="8,-70 8,-268 5362,-268 5362,-70 8,-70"/>
</g>
<g id="clust2" class="cluster">
<title>cluster_AppModule_declarations</title>
<polygon fill="none" stroke="#000000" points="4118,-78 4118,-130 5354,-130 5354,-78 4118,-78"/>
</g>
<g id="clust11" class="cluster">
<title>cluster_AppModule_imports</title>
<polygon fill="none" stroke="#000000" points="745,-78 745,-130 4110,-130 4110,-78 745,-78"/>
</g>
<g id="clust13" class="cluster">
<title>cluster_AppModule_bootstrap</title>
<polygon fill="none" stroke="#000000" points="2649,-208 2649,-260 2773,-260 2773,-208 2649,-208"/>
</g>
<g id="clust14" class="cluster">
<title>cluster_AppModule_providers</title>
<polygon fill="none" stroke="#000000" points="16,-78 16,-130 737,-130 737,-78 16,-78"/>
</g>
<!-- AppComponent -->
<g id="node1" class="node">
<title>AppComponent</title>
<polygon fill="#ffffb3" stroke="#000000" points="5345.9399,-122 5240.0601,-122 5240.0601,-86 5345.9399,-86 5345.9399,-122"/>
<text text-anchor="middle" x="5293" y="-99.8" font-family="Times,serif" font-size="14.00" fill="#000000">AppComponent</text>
</g>
<!-- AppModule -->
<g id="node9" class="node">
<title>AppModule</title>
<polygon fill="#8dd3c7" stroke="#000000" points="2752.6571,-187 2749.6571,-191 2728.6571,-191 2725.6571,-187 2669.3429,-187 2669.3429,-151 2752.6571,-151 2752.6571,-187"/>
<text text-anchor="middle" x="2711" y="-164.8" font-family="Times,serif" font-size="14.00" fill="#000000">AppModule</text>
</g>
<!-- AppComponent&#45;&gt;AppModule -->
<g id="edge1" class="edge">
<title>AppComponent&#45;&gt;AppModule</title>
<path fill="none" stroke="#000000" d="M5293,-122.3802C5293,-146.2785 5293,-185 5293,-185 5293,-185 2762.8663,-185 2762.8663,-185"/>
<polygon fill="#000000" stroke="#000000" points="2762.8663,-181.5001 2752.8663,-185 2762.8662,-188.5001 2762.8663,-181.5001"/>
</g>
<!-- HomeComponent -->
<g id="node2" class="node">
<title>HomeComponent</title>
<polygon fill="#ffffb3" stroke="#000000" points="5222.5451,-122 5107.4549,-122 5107.4549,-86 5222.5451,-86 5222.5451,-122"/>
<text text-anchor="middle" x="5165" y="-99.8" font-family="Times,serif" font-size="14.00" fill="#000000">HomeComponent</text>
</g>
<!-- HomeComponent&#45;&gt;AppModule -->
<g id="edge2" class="edge">
<title>HomeComponent&#45;&gt;AppModule</title>
<path fill="none" stroke="#000000" d="M5165,-122.3228C5165,-145.6602 5165,-183 5165,-183 5165,-183 2762.8204,-183 2762.8204,-183"/>
<polygon fill="#000000" stroke="#000000" points="2762.8204,-179.5001 2752.8204,-183 2762.8204,-186.5001 2762.8204,-179.5001"/>
</g>
<!-- UserCardComponent -->
<g id="node3" class="node">
<title>UserCardComponent</title>
<polygon fill="#ffffb3" stroke="#000000" points="5089.4706,-122 4954.5294,-122 4954.5294,-86 5089.4706,-86 5089.4706,-122"/>
<text text-anchor="middle" x="5022" y="-99.8" font-family="Times,serif" font-size="14.00" fill="#000000">UserCardComponent</text>
</g>
<!-- UserCardComponent&#45;&gt;AppModule -->
<g id="edge3" class="edge">
<title>UserCardComponent&#45;&gt;AppModule</title>
<path fill="none" stroke="#000000" d="M5022,-122.2479C5022,-145.0179 5022,-181 5022,-181 5022,-181 2763.0845,-181 2763.0845,-181"/>
<polygon fill="#000000" stroke="#000000" points="2763.0845,-177.5001 2753.0845,-181 2763.0845,-184.5001 2763.0845,-177.5001"/>
</g>
<!-- RecrutDetailsComponent -->
<g id="node4" class="node">
<title>RecrutDetailsComponent</title>
<polygon fill="#ffffb3" stroke="#000000" points="4936.3019,-122 4777.6981,-122 4777.6981,-86 4936.3019,-86 4936.3019,-122"/>
<text text-anchor="middle" x="4857" y="-99.8" font-family="Times,serif" font-size="14.00" fill="#000000">RecrutDetailsComponent</text>
</g>
<!-- RecrutDetailsComponent&#45;&gt;AppModule -->
<g id="edge4" class="edge">
<title>RecrutDetailsComponent&#45;&gt;AppModule</title>
<path fill="none" stroke="#000000" d="M4857,-122.1554C4857,-144.3519 4857,-179 4857,-179 4857,-179 2762.9049,-179 2762.9049,-179"/>
<polygon fill="#000000" stroke="#000000" points="2762.905,-175.5001 2752.9049,-179 2762.9049,-182.5001 2762.905,-175.5001"/>
</g>
<!-- UserInterfaceComponent -->
<g id="node5" class="node">
<title>UserInterfaceComponent</title>
<polygon fill="#ffffb3" stroke="#000000" points="4759.9904,-122 4602.0096,-122 4602.0096,-86 4759.9904,-86 4759.9904,-122"/>
<text text-anchor="middle" x="4681" y="-99.8" font-family="Times,serif" font-size="14.00" fill="#000000">UserInterfaceComponent</text>
</g>
<!-- UserInterfaceComponent&#45;&gt;AppModule -->
<g id="edge5" class="edge">
<title>UserInterfaceComponent&#45;&gt;AppModule</title>
<path fill="none" stroke="#000000" d="M4681,-122.0449C4681,-143.6623 4681,-177 4681,-177 4681,-177 2763.0576,-177 2763.0576,-177"/>
<polygon fill="#000000" stroke="#000000" points="2763.0577,-173.5001 2753.0576,-177 2763.0576,-180.5001 2763.0577,-173.5001"/>
</g>
<!-- FavouriteButtonComponent -->
<g id="node6" class="node">
<title>FavouriteButtonComponent</title>
<polygon fill="#ffffb3" stroke="#000000" points="4584.6038,-122 4411.3962,-122 4411.3962,-86 4584.6038,-86 4584.6038,-122"/>
<text text-anchor="middle" x="4498" y="-99.8" font-family="Times,serif" font-size="14.00" fill="#000000">FavouriteButtonComponent</text>
</g>
<!-- FavouriteButtonComponent&#45;&gt;AppModule -->
<g id="edge6" class="edge">
<title>FavouriteButtonComponent&#45;&gt;AppModule</title>
<path fill="none" stroke="#000000" d="M4498,-122.2843C4498,-143.3211 4498,-175 4498,-175 4498,-175 2762.9753,-175 2762.9753,-175"/>
<polygon fill="#000000" stroke="#000000" points="2762.9753,-171.5001 2752.9753,-175 2762.9753,-178.5001 2762.9753,-171.5001"/>
</g>
<!-- LoginComponent -->
<g id="node7" class="node">
<title>LoginComponent</title>
<polygon fill="#ffffb3" stroke="#000000" points="4393.2758,-122 4278.7242,-122 4278.7242,-86 4393.2758,-86 4393.2758,-122"/>
<text text-anchor="middle" x="4336" y="-99.8" font-family="Times,serif" font-size="14.00" fill="#000000">LoginComponent</text>
</g>
<!-- LoginComponent&#45;&gt;AppModule -->
<g id="edge7" class="edge">
<title>LoginComponent&#45;&gt;AppModule</title>
<path fill="none" stroke="#000000" d="M4336,-122.1289C4336,-142.5724 4336,-173 4336,-173 4336,-173 2762.8018,-173 2762.8018,-173"/>
<polygon fill="#000000" stroke="#000000" points="2762.8018,-169.5001 2752.8018,-173 2762.8017,-176.5001 2762.8018,-169.5001"/>
</g>
<!-- FeedbackComponent -->
<g id="node8" class="node">
<title>FeedbackComponent</title>
<polygon fill="#ffffb3" stroke="#000000" points="4260.4734,-122 4125.5266,-122 4125.5266,-86 4260.4734,-86 4260.4734,-122"/>
<text text-anchor="middle" x="4193" y="-99.8" font-family="Times,serif" font-size="14.00" fill="#000000">FeedbackComponent</text>
</g>
<!-- FeedbackComponent&#45;&gt;AppModule -->
<g id="edge8" class="edge">
<title>FeedbackComponent&#45;&gt;AppModule</title>
<path fill="none" stroke="#000000" d="M4193,-122.308C4193,-142.1455 4193,-171 4193,-171 4193,-171 2762.9661,-171 2762.9661,-171"/>
<polygon fill="#000000" stroke="#000000" points="2762.9662,-167.5001 2752.9661,-171 2762.9661,-174.5001 2762.9662,-167.5001"/>
</g>
<!-- AppComponent  -->
<g id="node32" class="node">
<title>AppComponent </title>
<polygon fill="#80b1d3" stroke="#000000" points="2765.439,-252 2656.561,-252 2656.561,-216 2765.439,-216 2765.439,-252"/>
<text text-anchor="middle" x="2711" y="-229.8" font-family="Times,serif" font-size="14.00" fill="#000000">AppComponent </text>
</g>
<!-- AppModule&#45;&gt;AppComponent  -->
<g id="edge32" class="edge">
<title>AppModule&#45;&gt;AppComponent </title>
<path fill="none" stroke="#000000" stroke-dasharray="1,5" d="M2711,-187.1061C2711,-187.1061 2711,-205.991 2711,-205.991"/>
<polygon fill="#000000" stroke="#000000" points="2707.5001,-205.9909 2711,-215.991 2714.5001,-205.991 2707.5001,-205.9909"/>
</g>
<!-- routing -->
<g id="node10" class="node">
<title>routing</title>
<polygon fill="#8dd3c7" stroke="#000000" points="4102.4435,-122 4099.4435,-126 4078.4435,-126 4075.4435,-122 4045.5565,-122 4045.5565,-86 4102.4435,-86 4102.4435,-122"/>
<text text-anchor="middle" x="4074" y="-99.8" font-family="Times,serif" font-size="14.00" fill="#000000">routing</text>
</g>
<!-- routing&#45;&gt;AppModule -->
<g id="edge9" class="edge">
<title>routing&#45;&gt;AppModule</title>
<path fill="none" stroke="#000000" d="M4074,-122.1686C4074,-141.0898 4074,-168 4074,-168 4074,-168 2762.9105,-168 2762.9105,-168"/>
<polygon fill="#000000" stroke="#000000" points="2762.9106,-164.5001 2752.9105,-168 2762.9105,-171.5001 2762.9106,-164.5001"/>
</g>
<!-- BrowserModule -->
<g id="node11" class="node">
<title>BrowserModule</title>
<polygon fill="#8dd3c7" stroke="#000000" points="4027.4734,-122 4024.4734,-126 4003.4734,-126 4000.4734,-122 3920.5266,-122 3920.5266,-86 4027.4734,-86 4027.4734,-122"/>
<text text-anchor="middle" x="3974" y="-99.8" font-family="Times,serif" font-size="14.00" fill="#000000">BrowserModule</text>
</g>
<!-- BrowserModule&#45;&gt;AppModule -->
<g id="edge10" class="edge">
<title>BrowserModule&#45;&gt;AppModule</title>
<path fill="none" stroke="#000000" d="M3974,-122.2667C3974,-140.5552 3974,-166 3974,-166 3974,-166 2762.6625,-166 2762.6625,-166"/>
<polygon fill="#000000" stroke="#000000" points="2762.6626,-162.5001 2752.6625,-166 2762.6625,-169.5001 2762.6626,-162.5001"/>
</g>
<!-- AngularFireModule.initializeApp(args) -->
<g id="node12" class="node">
<title>AngularFireModule.initializeApp(args)</title>
<polygon fill="#8dd3c7" stroke="#000000" points="3902.7057,-122 3899.7057,-126 3878.7057,-126 3875.7057,-122 3665.2943,-122 3665.2943,-86 3902.7057,-86 3902.7057,-122"/>
<text text-anchor="middle" x="3784" y="-99.8" font-family="Times,serif" font-size="14.00" fill="#000000">AngularFireModule.initializeApp(args)</text>
</g>
<!-- AngularFireModule.initializeApp(args)&#45;&gt;AppModule -->
<g id="edge11" class="edge">
<title>AngularFireModule.initializeApp(args)&#45;&gt;AppModule</title>
<path fill="none" stroke="#000000" d="M3784,-122.002C3784,-139.6754 3784,-164 3784,-164 3784,-164 2762.7336,-164 2762.7336,-164"/>
<polygon fill="#000000" stroke="#000000" points="2762.7336,-160.5001 2752.7336,-164 2762.7335,-167.5001 2762.7336,-160.5001"/>
</g>
<!-- AngularFirestoreModule -->
<g id="node13" class="node">
<title>AngularFirestoreModule</title>
<polygon fill="#8dd3c7" stroke="#000000" points="3647.6811,-122 3644.6811,-126 3623.6811,-126 3620.6811,-122 3492.3189,-122 3492.3189,-86 3647.6811,-86 3647.6811,-122"/>
<text text-anchor="middle" x="3570" y="-99.8" font-family="Times,serif" font-size="14.00" fill="#000000">AngularFirestoreModule</text>
</g>
<!-- AngularFirestoreModule&#45;&gt;AppModule -->
<g id="edge12" class="edge">
<title>AngularFirestoreModule&#45;&gt;AppModule</title>
<path fill="none" stroke="#000000" d="M3570,-122.0336C3570,-139.0597 3570,-162 3570,-162 3570,-162 2762.7217,-162 2762.7217,-162"/>
<polygon fill="#000000" stroke="#000000" points="2762.7217,-158.5001 2752.7217,-162 2762.7216,-165.5001 2762.7217,-158.5001"/>
</g>
<!-- AngularFireAuthModule -->
<g id="node14" class="node">
<title>AngularFireAuthModule</title>
<polygon fill="#8dd3c7" stroke="#000000" points="3473.9678,-122 3470.9678,-126 3449.9678,-126 3446.9678,-122 3318.0322,-122 3318.0322,-86 3473.9678,-86 3473.9678,-122"/>
<text text-anchor="middle" x="3396" y="-99.8" font-family="Times,serif" font-size="14.00" fill="#000000">AngularFireAuthModule</text>
</g>
<!-- AngularFireAuthModule&#45;&gt;AppModule -->
<g id="edge13" class="edge">
<title>AngularFireAuthModule&#45;&gt;AppModule</title>
<path fill="none" stroke="#000000" d="M3396,-122.027C3396,-138.3976 3396,-160 3396,-160 3396,-160 2762.8187,-160 2762.8187,-160"/>
<polygon fill="#000000" stroke="#000000" points="2762.8187,-156.5001 2752.8187,-160 2762.8186,-163.5001 2762.8187,-156.5001"/>
</g>
<!-- AngularFireStorageModule -->
<g id="node15" class="node">
<title>AngularFireStorageModule</title>
<polygon fill="#8dd3c7" stroke="#000000" points="3300.2338,-122 3297.2338,-126 3276.2338,-126 3273.2338,-122 3129.7662,-122 3129.7662,-86 3300.2338,-86 3300.2338,-122"/>
<text text-anchor="middle" x="3215" y="-99.8" font-family="Times,serif" font-size="14.00" fill="#000000">AngularFireStorageModule</text>
</g>
<!-- AngularFireStorageModule&#45;&gt;AppModule -->
<g id="edge14" class="edge">
<title>AngularFireStorageModule&#45;&gt;AppModule</title>
<path fill="none" stroke="#000000" d="M3215,-122.2819C3215,-137.9478 3215,-158 3215,-158 3215,-158 2762.6732,-158 2762.6732,-158"/>
<polygon fill="#000000" stroke="#000000" points="2762.6733,-154.5001 2752.6732,-158 2762.6732,-161.5001 2762.6733,-154.5001"/>
</g>
<!-- HttpClientModule -->
<g id="node16" class="node">
<title>HttpClientModule</title>
<polygon fill="#8dd3c7" stroke="#000000" points="3111.1611,-122 3108.1611,-126 3087.1611,-126 3084.1611,-122 2992.8389,-122 2992.8389,-86 3111.1611,-86 3111.1611,-122"/>
<text text-anchor="middle" x="3052" y="-99.8" font-family="Times,serif" font-size="14.00" fill="#000000">HttpClientModule</text>
</g>
<!-- HttpClientModule&#45;&gt;AppModule -->
<g id="edge15" class="edge">
<title>HttpClientModule&#45;&gt;AppModule</title>
<path fill="none" stroke="#000000" d="M3052,-122.1871C3052,-137.1824 3052,-156 3052,-156 3052,-156 2762.8133,-156 2762.8133,-156"/>
<polygon fill="#000000" stroke="#000000" points="2762.8133,-152.5001 2752.8133,-156 2762.8133,-159.5001 2762.8133,-152.5001"/>
</g>
<!-- FlexLayoutModule -->
<g id="node17" class="node">
<title>FlexLayoutModule</title>
<polygon fill="#8dd3c7" stroke="#000000" points="2975.0954,-122 2972.0954,-126 2951.0954,-126 2948.0954,-122 2850.9046,-122 2850.9046,-86 2975.0954,-86 2975.0954,-122"/>
<text text-anchor="middle" x="2913" y="-99.8" font-family="Times,serif" font-size="14.00" fill="#000000">FlexLayoutModule</text>
</g>
<!-- FlexLayoutModule&#45;&gt;AppModule -->
<g id="edge16" class="edge">
<title>FlexLayoutModule&#45;&gt;AppModule</title>
<path fill="none" stroke="#000000" d="M2913,-122.0511C2913,-136.373 2913,-154 2913,-154 2913,-154 2762.8545,-154 2762.8545,-154"/>
<polygon fill="#000000" stroke="#000000" points="2762.8546,-150.5001 2752.8545,-154 2762.8545,-157.5001 2762.8546,-150.5001"/>
</g>
<!-- MatCardModule -->
<g id="node18" class="node">
<title>MatCardModule</title>
<polygon fill="#8dd3c7" stroke="#000000" points="2832.8118,-122 2829.8118,-126 2808.8118,-126 2805.8118,-122 2723.1882,-122 2723.1882,-86 2832.8118,-86 2832.8118,-122"/>
<text text-anchor="middle" x="2778" y="-99.8" font-family="Times,serif" font-size="14.00" fill="#000000">MatCardModule</text>
</g>
<!-- MatCardModule&#45;&gt;AppModule -->
<g id="edge17" class="edge">
<title>MatCardModule&#45;&gt;AppModule</title>
<path fill="none" stroke="#000000" d="M2738.0863,-122.1061C2738.0863,-122.1061 2738.0863,-140.991 2738.0863,-140.991"/>
<polygon fill="#000000" stroke="#000000" points="2734.5863,-140.9909 2738.0863,-150.991 2741.5863,-140.991 2734.5863,-140.9909"/>
</g>
<!-- MatDialogModule -->
<g id="node19" class="node">
<title>MatDialogModule</title>
<polygon fill="#8dd3c7" stroke="#000000" points="2705.2022,-122 2702.2022,-126 2681.2022,-126 2678.2022,-122 2584.7978,-122 2584.7978,-86 2705.2022,-86 2705.2022,-122"/>
<text text-anchor="middle" x="2645" y="-99.8" font-family="Times,serif" font-size="14.00" fill="#000000">MatDialogModule</text>
</g>
<!-- MatDialogModule&#45;&gt;AppModule -->
<g id="edge18" class="edge">
<title>MatDialogModule&#45;&gt;AppModule</title>
<path fill="none" stroke="#000000" d="M2687.1364,-122.1061C2687.1364,-122.1061 2687.1364,-140.991 2687.1364,-140.991"/>
<polygon fill="#000000" stroke="#000000" points="2683.6365,-140.9909 2687.1364,-150.991 2690.6365,-140.991 2683.6365,-140.9909"/>
</g>
<!-- BrowserAnimationsModule -->
<g id="node20" class="node">
<title>BrowserAnimationsModule</title>
<polygon fill="#8dd3c7" stroke="#000000" points="2567.3019,-122 2564.3019,-126 2543.3019,-126 2540.3019,-122 2394.6981,-122 2394.6981,-86 2567.3019,-86 2567.3019,-122"/>
<text text-anchor="middle" x="2481" y="-99.8" font-family="Times,serif" font-size="14.00" fill="#000000">BrowserAnimationsModule</text>
</g>
<!-- BrowserAnimationsModule&#45;&gt;AppModule -->
<g id="edge19" class="edge">
<title>BrowserAnimationsModule&#45;&gt;AppModule</title>
<path fill="none" stroke="#000000" d="M2481,-122.0511C2481,-136.373 2481,-154 2481,-154 2481,-154 2659.0819,-154 2659.0819,-154"/>
<polygon fill="#000000" stroke="#000000" points="2659.0819,-157.5001 2669.0819,-154 2659.0819,-150.5001 2659.0819,-157.5001"/>
</g>
<!-- MatButtonModule -->
<g id="node21" class="node">
<title>MatButtonModule</title>
<polygon fill="#8dd3c7" stroke="#000000" points="2377.2176,-122 2374.2176,-126 2353.2176,-126 2350.2176,-122 2256.7824,-122 2256.7824,-86 2377.2176,-86 2377.2176,-122"/>
<text text-anchor="middle" x="2317" y="-99.8" font-family="Times,serif" font-size="14.00" fill="#000000">MatButtonModule</text>
</g>
<!-- MatButtonModule&#45;&gt;AppModule -->
<g id="edge20" class="edge">
<title>MatButtonModule&#45;&gt;AppModule</title>
<path fill="none" stroke="#000000" d="M2317,-122.1871C2317,-137.1824 2317,-156 2317,-156 2317,-156 2659.2081,-156 2659.2081,-156"/>
<polygon fill="#000000" stroke="#000000" points="2659.2081,-159.5001 2669.2081,-156 2659.2081,-152.5001 2659.2081,-159.5001"/>
</g>
<!-- FormsModule -->
<g id="node22" class="node">
<title>FormsModule</title>
<polygon fill="#8dd3c7" stroke="#000000" points="2238.8288,-122 2235.8288,-126 2214.8288,-126 2211.8288,-122 2143.1712,-122 2143.1712,-86 2238.8288,-86 2238.8288,-122"/>
<text text-anchor="middle" x="2191" y="-99.8" font-family="Times,serif" font-size="14.00" fill="#000000">FormsModule</text>
</g>
<!-- FormsModule&#45;&gt;AppModule -->
<g id="edge21" class="edge">
<title>FormsModule&#45;&gt;AppModule</title>
<path fill="none" stroke="#000000" d="M2191,-122.2819C2191,-137.9478 2191,-158 2191,-158 2191,-158 2659.3252,-158 2659.3252,-158"/>
<polygon fill="#000000" stroke="#000000" points="2659.3253,-161.5001 2669.3252,-158 2659.3252,-154.5001 2659.3253,-161.5001"/>
</g>
<!-- ReactiveFormsModule -->
<g id="node23" class="node">
<title>ReactiveFormsModule</title>
<polygon fill="#8dd3c7" stroke="#000000" points="2125.3047,-122 2122.3047,-126 2101.3047,-126 2098.3047,-122 1980.6953,-122 1980.6953,-86 2125.3047,-86 2125.3047,-122"/>
<text text-anchor="middle" x="2053" y="-99.8" font-family="Times,serif" font-size="14.00" fill="#000000">ReactiveFormsModule</text>
</g>
<!-- ReactiveFormsModule&#45;&gt;AppModule -->
<g id="edge22" class="edge">
<title>ReactiveFormsModule&#45;&gt;AppModule</title>
<path fill="none" stroke="#000000" d="M2053,-122.027C2053,-138.3976 2053,-160 2053,-160 2053,-160 2659.34,-160 2659.34,-160"/>
<polygon fill="#000000" stroke="#000000" points="2659.34,-163.5001 2669.34,-160 2659.3399,-156.5001 2659.34,-163.5001"/>
</g>
<!-- MatFormFieldModule -->
<g id="node24" class="node">
<title>MatFormFieldModule</title>
<polygon fill="#8dd3c7" stroke="#000000" points="1962.712,-122 1959.712,-126 1938.712,-126 1935.712,-122 1821.288,-122 1821.288,-86 1962.712,-86 1962.712,-122"/>
<text text-anchor="middle" x="1892" y="-99.8" font-family="Times,serif" font-size="14.00" fill="#000000">MatFormFieldModule</text>
</g>
<!-- MatFormFieldModule&#45;&gt;AppModule -->
<g id="edge23" class="edge">
<title>MatFormFieldModule&#45;&gt;AppModule</title>
<path fill="none" stroke="#000000" d="M1868.4647,-122.002C1868.4647,-139.6754 1868.4647,-164 1868.4647,-164 1868.4647,-164 2659.2185,-164 2659.2185,-164"/>
<polygon fill="#000000" stroke="#000000" points="2659.2186,-167.5001 2669.2185,-164 2659.2185,-160.5001 2659.2186,-167.5001"/>
</g>
<!-- MatFormFieldModule&#45;&gt;AppModule -->
<g id="edge26" class="edge">
<title>MatFormFieldModule&#45;&gt;AppModule</title>
<path fill="none" stroke="#000000" d="M1915.5353,-122.0336C1915.5353,-139.0597 1915.5353,-162 1915.5353,-162 1915.5353,-162 2659.0736,-162 2659.0736,-162"/>
<polygon fill="#000000" stroke="#000000" points="2659.0736,-165.5001 2669.0736,-162 2659.0735,-158.5001 2659.0736,-165.5001"/>
</g>
<!-- MatDatepickerModule -->
<g id="node25" class="node">
<title>MatDatepickerModule</title>
<polygon fill="#8dd3c7" stroke="#000000" points="1803.5072,-122 1800.5072,-126 1779.5072,-126 1776.5072,-122 1660.4928,-122 1660.4928,-86 1803.5072,-86 1803.5072,-122"/>
<text text-anchor="middle" x="1732" y="-99.8" font-family="Times,serif" font-size="14.00" fill="#000000">MatDatepickerModule</text>
</g>
<!-- MatDatepickerModule&#45;&gt;AppModule -->
<g id="edge24" class="edge">
<title>MatDatepickerModule&#45;&gt;AppModule</title>
<path fill="none" stroke="#000000" d="M1732,-122.2667C1732,-140.5552 1732,-166 1732,-166 1732,-166 2659.2468,-166 2659.2468,-166"/>
<polygon fill="#000000" stroke="#000000" points="2659.2468,-169.5001 2669.2468,-166 2659.2467,-162.5001 2659.2468,-169.5001"/>
</g>
<!-- MatNativeDateModule -->
<g id="node26" class="node">
<title>MatNativeDateModule</title>
<ellipse fill="#8dd3c7" stroke="#000000" cx="1542" cy="-104" rx="100.6998" ry="18"/>
<text text-anchor="middle" x="1542" y="-99.8" font-family="Times,serif" font-size="14.00" fill="#000000">MatNativeDateModule</text>
</g>
<!-- MatNativeDateModule&#45;&gt;AppModule -->
<g id="edge25" class="edge">
<title>MatNativeDateModule&#45;&gt;AppModule</title>
<path fill="none" stroke="#000000" d="M1508.4667,-121.2542C1508.4667,-141.1058 1508.4667,-171 1508.4667,-171 1508.4667,-171 2659.2569,-171 2659.2569,-171"/>
<polygon fill="#000000" stroke="#000000" points="2659.2569,-174.5001 2669.2569,-171 2659.2568,-167.5001 2659.2569,-174.5001"/>
</g>
<!-- MatNativeDateModule&#45;&gt;AppModule -->
<g id="edge33" class="edge">
<title>MatNativeDateModule&#45;&gt;AppModule</title>
<path fill="none" stroke="#000000" d="M1575.5333,-121.1508C1575.5333,-140.1084 1575.5333,-168 1575.5333,-168 1575.5333,-168 2659.2415,-168 2659.2415,-168"/>
<polygon fill="#000000" stroke="#000000" points="2659.2415,-171.5001 2669.2415,-168 2659.2415,-164.5001 2659.2415,-171.5001"/>
</g>
<!-- MatInputModule -->
<g id="node27" class="node">
<title>MatInputModule</title>
<polygon fill="#8dd3c7" stroke="#000000" points="1423.6513,-122 1420.6513,-126 1399.6513,-126 1396.6513,-122 1312.3487,-122 1312.3487,-86 1423.6513,-86 1423.6513,-122"/>
<text text-anchor="middle" x="1368" y="-99.8" font-family="Times,serif" font-size="14.00" fill="#000000">MatInputModule</text>
</g>
<!-- MatInputModule&#45;&gt;AppModule -->
<g id="edge27" class="edge">
<title>MatInputModule&#45;&gt;AppModule</title>
<path fill="none" stroke="#000000" d="M1368,-122.1289C1368,-142.5724 1368,-173 1368,-173 1368,-173 2659.334,-173 2659.334,-173"/>
<polygon fill="#000000" stroke="#000000" points="2659.334,-176.5001 2669.334,-173 2659.334,-169.5001 2659.334,-176.5001"/>
</g>
<!-- MatIconModule -->
<g id="node28" class="node">
<title>MatIconModule</title>
<polygon fill="#8dd3c7" stroke="#000000" points="1294.4748,-122 1291.4748,-126 1270.4748,-126 1267.4748,-122 1187.5252,-122 1187.5252,-86 1294.4748,-86 1294.4748,-122"/>
<text text-anchor="middle" x="1241" y="-99.8" font-family="Times,serif" font-size="14.00" fill="#000000">MatIconModule</text>
</g>
<!-- MatIconModule&#45;&gt;AppModule -->
<g id="edge28" class="edge">
<title>MatIconModule&#45;&gt;AppModule</title>
<path fill="none" stroke="#000000" d="M1241,-122.2843C1241,-143.3211 1241,-175 1241,-175 1241,-175 2658.9832,-175 2658.9832,-175"/>
<polygon fill="#000000" stroke="#000000" points="2658.9833,-178.5001 2668.9832,-175 2658.9832,-171.5001 2658.9833,-178.5001"/>
</g>
<!-- MatSelectModule -->
<g id="node29" class="node">
<title>MatSelectModule</title>
<polygon fill="#8dd3c7" stroke="#000000" points="1169.3076,-122 1166.3076,-126 1145.3076,-126 1142.3076,-122 1052.6924,-122 1052.6924,-86 1169.3076,-86 1169.3076,-122"/>
<text text-anchor="middle" x="1111" y="-99.8" font-family="Times,serif" font-size="14.00" fill="#000000">MatSelectModule</text>
</g>
<!-- MatSelectModule&#45;&gt;AppModule -->
<g id="edge29" class="edge">
<title>MatSelectModule&#45;&gt;AppModule</title>
<path fill="none" stroke="#000000" d="M1111,-122.0449C1111,-143.6623 1111,-177 1111,-177 1111,-177 2659.0263,-177 2659.0263,-177"/>
<polygon fill="#000000" stroke="#000000" points="2659.0263,-180.5001 2669.0263,-177 2659.0263,-173.5001 2659.0263,-180.5001"/>
</g>
<!-- CommonModule -->
<g id="node30" class="node">
<title>CommonModule</title>
<polygon fill="#8dd3c7" stroke="#000000" points="1034.6681,-122 1031.6681,-126 1010.6681,-126 1007.6681,-122 923.3319,-122 923.3319,-86 1034.6681,-86 1034.6681,-122"/>
<text text-anchor="middle" x="979" y="-99.8" font-family="Times,serif" font-size="14.00" fill="#000000">CommonModule</text>
</g>
<!-- CommonModule&#45;&gt;AppModule -->
<g id="edge30" class="edge">
<title>CommonModule&#45;&gt;AppModule</title>
<path fill="none" stroke="#000000" d="M979,-122.1554C979,-144.3519 979,-179 979,-179 979,-179 2659.0445,-179 2659.0445,-179"/>
<polygon fill="#000000" stroke="#000000" points="2659.0445,-182.5001 2669.0445,-179 2659.0444,-175.5001 2659.0445,-182.5001"/>
</g>
<!-- ToastrModule.forRoot() -->
<g id="node31" class="node">
<title>ToastrModule.forRoot()</title>
<polygon fill="#8dd3c7" stroke="#000000" points="904.6827,-122 901.6827,-126 880.6827,-126 877.6827,-122 753.3173,-122 753.3173,-86 904.6827,-86 904.6827,-122"/>
<text text-anchor="middle" x="829" y="-99.8" font-family="Times,serif" font-size="14.00" fill="#000000">ToastrModule.forRoot()</text>
</g>
<!-- ToastrModule.forRoot()&#45;&gt;AppModule -->
<g id="edge31" class="edge">
<title>ToastrModule.forRoot()&#45;&gt;AppModule</title>
<path fill="none" stroke="#000000" d="M829,-122.2479C829,-145.0179 829,-181 829,-181 829,-181 2659.0531,-181 2659.0531,-181"/>
<polygon fill="#000000" stroke="#000000" points="2659.0531,-184.5001 2669.0531,-181 2659.053,-177.5001 2659.0531,-184.5001"/>
</g>
<!-- { provide: HTTP_INTERCEPTORS, useClass: JwtInterceptor, multi: &#160;} -->
<g id="node33" class="node">
<title>{ provide: HTTP_INTERCEPTORS, useClass: JwtInterceptor, multi: &#160;}</title>
<ellipse fill="#fdb462" stroke="#000000" cx="440" cy="-104" rx="289.1299" ry="18"/>
<text text-anchor="middle" x="440" y="-99.8" font-family="Times,serif" font-size="14.00" fill="#000000">{ provide: HTTP_INTERCEPTORS, useClass: JwtInterceptor, multi: &#160;}</text>
</g>
<!-- { provide: HTTP_INTERCEPTORS, useClass: JwtInterceptor, multi: &#160;}&#45;&gt;AppModule -->
<g id="edge34" class="edge">
<title>{ provide: HTTP_INTERCEPTORS, useClass: JwtInterceptor, multi: &#160;}&#45;&gt;AppModule</title>
<path fill="none" stroke="#000000" d="M440,-122.3228C440,-145.6602 440,-183 440,-183 440,-183 2659.1524,-183 2659.1524,-183"/>
<polygon fill="#000000" stroke="#000000" points="2659.1525,-186.5001 2669.1524,-183 2659.1524,-179.5001 2659.1525,-186.5001"/>
</g>
<!-- AuthGuard -->
<g id="node34" class="node">
<title>AuthGuard</title>
<ellipse fill="#fdb462" stroke="#000000" cx="78" cy="-104" rx="54.4566" ry="18"/>
<text text-anchor="middle" x="78" y="-99.8" font-family="Times,serif" font-size="14.00" fill="#000000">AuthGuard</text>
</g>
<!-- AuthGuard&#45;&gt;AppModule -->
<g id="edge35" class="edge">
<title>AuthGuard&#45;&gt;AppModule</title>
<path fill="none" stroke="#000000" d="M78,-122.3802C78,-146.2785 78,-185 78,-185 78,-185 2659.1102,-185 2659.1102,-185"/>
<polygon fill="#000000" stroke="#000000" points="2659.1103,-188.5001 2669.1102,-185 2659.1102,-181.5001 2659.1103,-188.5001"/>
</g>
</g>
</svg>
